<?xml version="1.0" encoding="UTF-8" standalone="no"?>
<!-- Created with Inkscape (http://www.inkscape.org/) -->

<svg
   xmlns:dc="http://purl.org/dc/elements/1.1/"
   xmlns:cc="http://creativecommons.org/ns#"
   xmlns:rdf="http://www.w3.org/1999/02/22-rdf-syntax-ns#"
   xmlns:svg="http://www.w3.org/2000/svg"
   xmlns="http://www.w3.org/2000/svg"
   version="1.1"
   width="512"
   height="512"
   viewBox="0 0 512 512"
   id="svg2"
   style="fill:#000000">
  <metadata
     id="metadata10">
    <rdf:RDF>
      <cc:Work
         rdf:about="">
        <dc:format>image/svg+xml</dc:format>
        <dc:type
           rdf:resource="http://purl.org/dc/dcmitype/StillImage" />
        <dc:title></dc:title>
      </cc:Work>
    </rdf:RDF>
  </metadata>
  <defs
     id="defs8" />
  <path
     d="M 128,0 C 92.666667,0 62.5,12.5 37.5,37.5 12.5,62.5 0,92.666667 0,128 c 0,16.33333 3.3333333,27 10,32 l 9,0 C 32,128 50.75,99.833333 75.25,75.5 99.75,51.166667 128,32.5 160,19.5 L 160,10 C 155,3.3333333 144.33333,0 128,0 z m 256,0 c -16.33333,0 -27,3.3333333 -32,10 l 0,9.5 c 32,12.666667 60.25,31.25 84.75,55.75 C 461.25,99.75 480,128 493,160 l 9,0 c 6.66667,-5 10,-15.66667 10,-32 C 512,92.666667 499.5,62.5 474.5,37.5 449.5,12.5 419.33333,0 384,0 z M 256.3125,63.8125 c -7.73256,0 -14.36215,2.69555 -19.90625,8.09375 -5.5441,5.3982 -8.3125,12.027796 -8.3125,19.90625 l 0,168.0625 c 0,7.87845 2.69555,14.5393 8.09375,19.9375 5.3982,5.3982 12.0278,8.09375 19.90625,8.09375 7.87845,0 14.50805,-2.69555 19.90625,-8.09375 5.3982,-5.3982 8.125,-12.05905 8.125,-19.9375 l 0,-168.0625 c 0,-7.878454 -2.7268,-14.50805 -8.125,-19.90625 -5.3982,-5.3982 -11.95494,-8.09375 -19.6875,-8.09375 z m -140.28125,56 c -2.91795,0 -5.7592,0.75978 -8.53125,2.21875 -2.77205,1.45897 -4.95763,2.98888 -6.5625,4.59375 -1.60487,1.60487 -3.644746,3.7176 -6.125,6.34375 -2.480254,2.62615 -4.155866,4.37462 -5.03125,5.25 C 71.398191,158.35258 57.160663,181.25958 47.09375,206.9375 37.026837,232.61542 32,259.60218 32,287.90625 c 0,40.55945 9.980821,78.03699 29.96875,112.46875 5.290072,9.11282 11.101684,17.70867 17.40625,25.8125 L 32,491.5 52.5,512 117.8125,464.625 c 8.10383,6.30457 16.69968,12.11618 25.8125,17.40625 C 178.05676,502.01918 215.5343,512 256.09375,512 c 30.34664,0 59.37326,-5.90107 87.09375,-17.71875 18.77649,-8.00471 35.77128,-17.89994 51,-29.65625 L 459.5,512 480,491.5 432.65625,426.21875 c 11.82822,-15.28277 21.7707,-32.35526 29.8125,-51.21875 11.81768,-27.72049 17.71875,-56.74711 17.71875,-87.09375 0,-28.30407 -5.02684,-55.29083 -15.09375,-80.96875 -10.06691,-25.67792 -24.30444,-48.58492 -42.6875,-68.71875 -0.29179,-0.29179 -1.45744,-1.60314 -3.5,-3.9375 -2.04256,-2.33436 -3.35391,-3.86426 -3.9375,-4.59375 -0.58359,-0.72949 -1.82209,-1.96798 -3.71875,-3.71875 -1.89666,-1.75077 -3.42657,-2.91641 -4.59375,-3.5 -1.16718,-0.58359 -2.69709,-1.16641 -4.59375,-1.75 -1.89666,-0.58359 -3.86369,-0.90625 -5.90625,-0.90625 -7.58666,0 -14.1434,2.79965 -19.6875,8.34375 -5.5441,5.5441 -8.3125,12.10084 -8.3125,19.6875 0,9.62922 2.18558,16.62308 6.5625,21 15.46511,15.46511 27.55866,33.49098 36.3125,54.0625 8.75384,20.57152 13.15625,42.24002 13.15625,65 0,30.34664 -7.53508,58.42618 -22.5625,84.25 -15.02742,25.82382 -35.45743,46.25383 -61.28125,61.28125 -25.82382,15.02742 -53.90336,22.53125 -84.25,22.53125 -30.34664,0 -58.42618,-7.50383 -84.25,-22.53125 -25.82382,-15.02742 -46.25383,-35.45743 -61.28125,-61.28125 -15.027421,-25.82382 -22.53125,-53.90336 -22.53125,-84.25 0,-22.75998 4.371162,-44.35563 13.125,-64.78125 8.75384,-20.42562 20.99309,-38.37864 36.75,-53.84375 l 1.34375,-2.1875 c 1.16718,-1.16718 2.25997,-3.49846 3.28125,-7 1.02128,-3.50154 1.53125,-7.58129 1.53125,-12.25 0,-7.58666 -2.79965,-14.1434 -8.34375,-19.6875 -5.5441,-5.5441 -12.10084,-8.34375 -19.6875,-8.34375 z"
     id="path4" />
  <g
     transform="matrix(0.87538376,0,0,0.87538376,32,63.803517)"
     id="g2997"
     style="opacity:0.5;fill:#ff0000;fill-opacity:1" />
</svg>
